<?xml version="1.0" encoding="utf-8"?>
<!-- Generator: Adobe Illustrator 19.0.0, SVG Export Plug-In . SVG Version: 6.00 Build 0)  -->
<svg version="1.1" id="Layer_1" xmlns="http://www.w3.org/2000/svg" xmlns:xlink="http://www.w3.org/1999/xlink" x="0px" y="0px"
	 viewBox="-1267 709 24 24" style="enable-background:new -1267 709 24 24;" xml:space="preserve">
<style type="text/css">
	.st0{fill:#FFFFFF;}
</style>
<g>
	<path class="st0" d="M-1248.1,716c0.8-0.5,1.3-1.2,1.6-2c-0.8,0.4-1.6,0.7-2.4,0.9c-0.7-0.8-1.6-1.1-2.7-1.1c-1,0-1.9,0.4-2.6,1.1
		c-0.7,0.7-1.1,1.6-1.1,2.6c0,0.3,0,0.6,0.1,0.8c-3.1-0.1-5.6-1.4-7.6-3.8c-0.3,0.6-0.5,1.2-0.5,1.8c0,1.3,0.5,2.3,1.6,3.1
		c-0.6-0.1-1.2-0.2-1.6-0.5c0,0.9,0.3,1.7,0.8,2.4c0.5,0.7,1.3,1.1,2.1,1.3c-0.3,0.1-0.6,0.1-1,0.1c-0.3,0-0.5,0-0.7-0.1
		c0.2,0.8,0.7,1.4,1.3,1.8c0.6,0.5,1.3,0.7,2.2,0.7c-1.3,1-2.9,1.6-4.6,1.6c-0.4,0-0.7,0-0.9,0c1.7,1.1,3.6,1.6,5.7,1.6
		c2.1,0,4-0.5,5.7-1.6c1.6-1.1,2.9-2.4,3.6-4c0.8-1.6,1.2-3.2,1.2-4.9v-0.5c0.8-0.6,1.4-1.2,1.8-1.9
		C-1246.7,715.7-1247.4,715.9-1248.1,716z"/>
</g>
</svg>
